<svg xmlns="http://www.w3.org/2000/svg"
  width="528.45" height="81.98770765578236" viewBox="0 0 355.7606584328719 55.19538434860998" class="looka-1j8o68f"><defs id="SvgjsDefs1258"><linearGradient id="SvgjsLinearGradient1265"><stop id="SvgjsStop1266" stop-color="#905e26" offset="0"></stop><stop id="SvgjsStop1267" stop-color="#f5ec9b" offset="0.5"></stop><stop id="SvgjsStop1268" stop-color="#905e26" offset="1"></stop></linearGradient><linearGradient id="SvgjsLinearGradient1269"><stop id="SvgjsStop1270" stop-color="#905e26" offset="0"></stop><stop id="SvgjsStop1271" stop-color="#f5ec9b" offset="0.5"></stop><stop id="SvgjsStop1272" stop-color="#905e26" offset="1"></stop></linearGradient><linearGradient id="SvgjsLinearGradient1273"><stop id="SvgjsStop1274" stop-color="#905e26" offset="0"></stop><stop id="SvgjsStop1275" stop-color="#f5ec9b" offset="0.5"></stop><stop id="SvgjsStop1276" stop-color="#905e26" offset="1"></stop></linearGradient></defs><g id="SvgjsG1259" featurekey="JKiIdh-0" transform="matrix(2.3998914651549295,0,0,2.3998914651549295,-0.0005995360078412651,-1.2020655116648968)" fill="url(#SvgjsLinearGradient1265)"><g xmlns="http://www.w3.org/2000/svg"><g><path d="M7.5,23.5c-0.063,0-0.127-0.012-0.189-0.037c-0.255-0.104-0.378-0.396-0.273-0.652l9-22    c0.105-0.255,0.399-0.377,0.652-0.273c0.255,0.104,0.378,0.396,0.273,0.652l-9,22C7.884,23.383,7.697,23.5,7.5,23.5z"></path></g><g><path d="M17.5,19.5c-0.115,0-0.231-0.04-0.325-0.121c-0.21-0.18-0.234-0.495-0.054-0.705L22.841,12l-5.721-6.675    c-0.18-0.209-0.156-0.525,0.054-0.705c0.21-0.18,0.525-0.156,0.705,0.054l6,7c0.161,0.187,0.161,0.463,0,0.65l-6,7    C17.781,19.441,17.641,19.5,17.5,19.5z"></path></g><g><path d="M6.5,19.5c-0.141,0-0.281-0.059-0.379-0.175l-6-7c-0.161-0.187-0.161-0.463,0-0.65l6-7c0.18-0.21,0.496-0.234,0.705-0.054    C7.035,4.8,7.06,5.116,6.879,5.325L1.159,12l5.721,6.675c0.18,0.209,0.156,0.525-0.054,0.705C6.731,19.46,6.615,19.5,6.5,19.5z"></path></g></g></g><g id="SvgjsG1260" featurekey="nameLeftFeature-0" transform="matrix(1.4940500182638699,0,0,1.4940500182638699,76.35131579202229,8.675599799384361)" fill="url(#SvgjsLinearGradient1269)"><path d="M1.1035 5.195 l4.7949 0 l0 1.6895 l-1.5137 0 l0 6.8945 q0 1.240234375 0.2783203125 2.114257813 t0.77148 1.4258 t1.1719 0.80566 t1.4893 0.25391 q0.83984375 0 1.54296875 -0.224609375 t1.2061 -0.75684 t0.78125 -1.416 t0.27832 -2.2021 l0 -6.8945 l-1.6016 0 l0 -1.6895 l4.7949 0 l0 1.6895 l-1.3184 0 l0 6.6797 q0 1.6015625 -0.4443359375 2.841796875 t-1.2158 2.0801 t-1.8164 1.2744 t-2.2461 0.43457 q-1.171875 0 -2.192382813 -0.4296875 t-1.7773 -1.2598 t-1.1914 -2.0264 t-0.43457 -2.7393 l0 -6.8555 l-1.3574 0 l0 -1.6895 z M23.80861875 7.93 q-0.3125 -0.4296875 -0.6884765625 -0.6591796875 t-0.8252 -0.35156 t-0.89844 -0.12207 q-0.7421875 0 -1.298828125 0.1708984375 t-0.92285 0.46387 t-0.55176 0.68359 t-0.18555 0.82031 q0 0.64453125 0.2294921875 1.040039063 t0.58105 0.63477 t0.77637 0.37598 t0.81543 0.27344 l1.9727 0.64453 q0.888671875 0.283203125 1.567382813 0.64453125 t1.1377 0.85449 t0.69824 1.1377 t0.23926 1.4941 q0 0.91796875 -0.3759765625 1.69921875 t-1.0498 1.3574 t-1.6064 0.90332 t-2.0459 0.32715 q-1.142578125 0 -1.953125 -0.2587890625 t-1.3623 -0.69336 t-0.88379 -0.99121 t-0.51758 -1.1426 l-0.74219 0 l0 -1.6797 l2.4609 0 q0 1.083984375 0.2294921875 1.533203125 t0.63965 0.74707 t0.97656 0.44922 t1.25 0.15137 q0.6640625 0 1.196289063 -0.15625 t0.9082 -0.4541 t0.57617 -0.72266 t0.2002 -0.96191 q0 -0.595703125 -0.2490234375 -1.010742188 t-0.63965 -0.70801 t-0.85449 -0.47852 t-0.89355 -0.32227 l-2.1387 -0.60547 q-0.703125 -0.21484375 -1.284179688 -0.546875 t-0.99609 -0.81055 t-0.63965 -1.1182 t-0.22461 -1.4795 q0 -0.849609375 0.33203125 -1.591796875 t0.97656 -1.2988 t1.5771 -0.87402 t2.1338 -0.31738 q0.791015625 0 1.459960938 0.185546875 t1.2109 0.52246 t0.95703 0.81055 t0.69824 1.04 l0.73242 0 l0 1.6797 l-2.3926 0 q0 -0.859375 -0.3125 -1.2890625 z M31.376925 18.3203 l1.3574 0 l0 -11.523 l-3.3789 0 l0 2.3047 l-2.002 0 l0 -3.9063 l13.203 0 l0 3.9063 l-2.002 0 l0 -2.3047 l-3.9063 0 l0 11.523 l1.5234 0 l0 1.6797 l-4.7949 0 l0 -1.6797 z M48.75973125 20.29297 q-1.533203125 0 -2.802734375 -0.5712890625 t-2.2656 -1.626 t-1.5137 -2.5 t-0.51758 -2.998 q0 -1.6015625 0.5224609375 -3.0078125 t1.4648 -2.4463 t2.2461 -1.6406 t2.8662 -0.60059 q1.572265625 0 2.880859375 0.6005859375 t2.2461 1.6406 t1.4551 2.4463 t0.51758 3.0078 t-0.52246 3.0029 t-1.4648 2.4463 t-2.2461 1.6455 t-2.8662 0.60059 z M48.75973125 18.4766 q1.162109375 0 2.104492188 -0.478515625 t1.6064 -1.2842 t1.0254 -1.8701 t0.36133 -2.2461 q0 -1.2109375 -0.3955078125 -2.338867188 t-1.1035 -1.9092 t-1.6455 -1.2061 t-1.9531 -0.4248 q-1.162109375 0 -2.109375 0.478515625 t-1.6113 1.2842 t-1.0254 1.875 t-0.36133 2.2412 q0 1.3671875 0.400390625 2.436523438 t1.0596 1.7773 t1.5723 1.1865 t2.0752 0.47852 z M67.909734375 7.382999999999999 l-8.916 10.938 l6.9434 0 l0 -2.4609 l1.9141 0 l0 4.1406 l-10.801 0 l0 -2.2168 l8.7891 -10.898 l-6.709 0 l0 2.5 l-1.9141 0 l0 -4.1895 l10.693 0 l0 2.1875 z M69.804703125 5.195 l4.7266 0 l0 1.6895 l-1.4063 0 l0 11.436 l1.4063 0 l0 1.6797 l-4.7266 0 l0 -1.6797 l1.4063 0 l0 -11.436 l-1.4063 0 l0 -1.6895 z M77.324234375 18.3203 l1.4063 0 l0 -11.26 l-1.4063 0 l0 -1.8652 l4.6875 0 l4.6973 12.783 l4.7559 -12.783 l4.4434 0 l0 1.8652 l-1.3965 0 l0 11.26 l1.3965 0 l0 1.6797 l-4.8047 0 l0 -1.6797 l1.582 0 l0 -11.367 l-5.1758 13.047 l-1.6602 0 l-5.2441 -13.076 l0 11.396 l1.5234 0 l0 1.6797 l-4.8047 0 l0 -1.6797 z"></path></g><g id="SvgjsG1261" featurekey="nameRightFeature-0" transform="matrix(1.5358771472990707,0,0,1.5358771472990707,232.15565236092414,8.021426281077428)" fill="url(#SvgjsLinearGradient1273)"><path d="M14.46290625 5.195 l5.625 0 l0 2.6855 l-1.2012 0 l0 12.119 l-3.2422 0 l-6.1621 -9.5703 l0 6.8945 l1.2402 0 l0 2.6758 l-5.6152 0 l0 -2.6758 l1.2207 0 l0 -9.4434 l-1.2012 0 l0 -2.6855 l4.4727 0 l6.123 9.6973 l0 -7.0117 l-1.2598 0 l0 -2.6855 z M21.0839875 5.195 l5.9375 0 l0 2.6855 l-1.3574 0 l0 6.1426 q0 0.83984375 0.1904296875 1.42578125 t0.53223 0.95703 t0.81055 0.54199 t1.0254 0.1709 q0.576171875 0 1.049804688 -0.146484375 t0.81055 -0.50293 t0.51758 -0.95215 t0.18066 -1.4941 l0 -6.1426 l-1.5723 0 l0 -2.6855 l5.9375 0 l0 2.6855 l-1.1816 0 l0 5.7617 q0 1.5625 -0.44921875 2.778320313 t-1.2354 2.0557 t-1.8457 1.2793 t-2.2705 0.43945 q-1.201171875 0 -2.24609375 -0.4345703125 t-1.8213 -1.2598 t-1.2256 -2.0068 t-0.44922 -2.6758 l0 -5.9375 l-1.3379 0 l0 -2.6855 z M36.933578125 5.195 l7.832 0 q1.142578125 0 2.041015625 0.341796875 t1.5137 0.91309 t0.94238 1.3281 t0.32715 1.5771 q0 0.751953125 -0.1611328125 1.318359375 t-0.46875 1.0059 t-0.75684 0.77637 t-1.0254 0.61035 q0.498046875 0.25390625 0.87890625 0.7763671875 t0.57617 1.3525 l0.49805 1.9238 l1.2207 0 l0.019531 2.8809 l-4.2969 0 l-0.58594 -3.5156 q-0.087890625 -0.625 -0.2685546875 -1.079101563 t-0.4834 -0.74219 t-0.7373 -0.4248 t-1.0303 -0.13672 l-1.2598 0 l0 3.2227 l1.3574 0 l0 2.6758 l-6.1328 0 l0 -2.6758 l1.5332 0 l0 -9.4434 l-1.5332 0 l0 -2.6855 z M41.708978125 7.881 l0 3.584 l1.9434 0 q0.556640625 0 1.000976563 -0.1025390625 t0.76172 -0.32227 t0.48828 -0.55176 t0.1709 -0.79102 q0 -0.859375 -0.615234375 -1.337890625 t-1.8066 -0.47852 l-1.9434 0 z M51.874984375 5.195 l6.3379 0 l0 2.6758 l-1.5625 0 l0 9.4531 l1.5625 0 l0 2.6758 l-6.3379 0 l0 -2.6758 l1.5332 0 l0 -9.4531 l-1.5332 0 l0 -2.6758 z M59.785140625 17.3242 l1.377 0 l0 -9.4434 l-1.377 0 l0 -2.6855 l6.0938 0 l4.3652 10.684 l4.0527 -10.684 l6.1816 0 l0 2.6855 l-1.377 0 l0 9.4434 l1.3574 0 l0 2.6758 l-5.5371 0 l0 -2.6758 l1.0156 0 l0 -8.5156 l-4.4336 11.016 l-2.7441 0 l-4.5117 -10.723 l0 8.2227 l1.1035 0 l0 2.6758 l-5.5664 0 l0 -2.6758 z"></path></g></svg>